<svg id="Capa_1" enable-background="new 0 0 512.264 512.264" height="512" viewBox="0 0 512.264 512.264" width="512" xmlns="http://www.w3.org/2000/svg"><path d="m485.456 256.132-19.622-53.857h18.657v-98.857h-54.673l-25.135-68.989h-99.123v-34.429h-98.857v34.429h-99.123l-25.135 68.989h-54.673v98.857h18.657l-19.622 53.857 19.622 53.857h-18.657v98.857h54.673l25.135 68.989h99.123v34.429h98.857v-34.429h99.123l25.135-68.989h54.673v-98.857h-18.657zm-101.772 191.703h-78.123v-34.429h-98.857v34.429h-78.124l-14.205-38.989h12.255v-98.857h-48.271l-19.622-53.857 19.622-53.857h48.271v-98.857h-12.255l14.205-38.989h78.123v34.429h98.857v-34.429h78.123l14.205 38.989h-12.255v98.857h48.271l19.622 53.857-19.622 53.857h-48.271v98.857h12.255z"/></svg>