<svg id="Capa_1" enable-background="new 0 0 512 512" height="512" viewBox="0 0 512 512" width="512" xmlns="http://www.w3.org/2000/svg"><g><path d="m137.715 34.429h30v30h-30z"/><path d="m206.571 34.429h30v30h-30z"/><path d="m275.429 34.429h30v30h-30z"/><path d="m344.285 34.429h30v30h-30z"/><path d="m137.715 447.571h30v30h-30z"/><path d="m206.571 447.571h30v30h-30z"/><path d="m275.429 447.571h30v30h-30z"/><path d="m344.285 447.571h30v30h-30z"/><path d="m447.571 137.714h30v30h-30z"/><path d="m447.571 206.571h30v30h-30z"/><path d="m447.571 275.429h30v30h-30z"/><path d="m447.571 344.286h30v30h-30z"/><path d="m34.429 137.714h30v30h-30z"/><path d="m34.429 206.571h30v30h-30z"/><path d="m34.429 275.429h30v30h-30z"/><path d="m34.429 344.286h30v30h-30z"/><path d="m137.715 202.143h68.856v206.572h98.857v-206.572h68.856v-98.857h-236.57v98.857zm30-68.857h176.57v38.857h-68.856v206.572h-38.857v-206.572h-68.856v-38.857z"/><path d="m0 98.857h98.857v-98.857h-98.857zm30-68.857h38.857v38.857h-38.857z"/><path d="m413.143 0v98.857h98.857v-98.857zm68.857 68.857h-38.857v-38.857h38.857z"/><path d="m0 512h98.857v-98.857h-98.857zm30-68.857h38.857v38.857h-38.857z"/><path d="m413.143 512h98.857v-98.857h-98.857zm30-68.857h38.857v38.857h-38.857z"/></g></svg>